<svg width="39" height="28" viewBox="0 0 39 28" fill="none" xmlns="http://www.w3.org/2000/svg">
<path d="M26.248 19.4577C25.8924 19.4577 25.5513 19.6011 25.2999 19.8563C25.0484 20.1115 24.9072 20.4577 24.9072 20.8186C24.9072 21.1796 25.0484 21.5258 25.2999 21.781C25.5513 22.0362 25.8924 22.1796 26.248 22.1796H31.6114C31.967 22.1796 32.308 22.0362 32.5595 21.781C32.811 21.5258 32.9522 21.1796 32.9522 20.8186C32.9522 20.4577 32.811 20.1115 32.5595 19.8563C32.308 19.6011 31.967 19.4577 31.6114 19.4577H26.248ZM0.771973 7.20908C0.771973 5.40434 1.47831 3.67352 2.73559 2.39737C3.99288 1.12123 5.69812 0.404297 7.47619 0.404297H31.6114C33.3894 0.404297 35.0947 1.12123 36.352 2.39737C37.6093 3.67352 38.3156 5.40434 38.3156 7.20908V20.8186C38.3156 22.6234 37.6093 24.3542 36.352 25.6304C35.0947 26.9065 33.3894 27.6234 31.6114 27.6234H7.47619C5.69812 27.6234 3.99288 26.9065 2.73559 25.6304C1.47831 24.3542 0.771973 22.6234 0.771973 20.8186V7.20908ZM35.6339 8.57004V7.20908C35.6339 6.12623 35.2101 5.08774 34.4557 4.32205C33.7014 3.55637 32.6782 3.12621 31.6114 3.12621H7.47619C6.40935 3.12621 5.3862 3.55637 4.63183 4.32205C3.87746 5.08774 3.45366 6.12623 3.45366 7.20908V8.57004H35.6339ZM3.45366 11.2919V20.8186C3.45366 21.9015 3.87746 22.94 4.63183 23.7057C5.3862 24.4714 6.40935 24.9015 7.47619 24.9015H31.6114C32.6782 24.9015 33.7014 24.4714 34.4557 23.7057C35.2101 22.94 35.6339 21.9015 35.6339 20.8186V11.2919H3.45366Z" fill="#FEFEFE"/>
</svg>
