<svg width="26" height="26" viewBox="0 0 26 26" fill="none" xmlns="http://www.w3.org/2000/svg">
<path d="M0.722656 3.95009C0.722656 3.74058 0.805881 3.53966 0.954022 3.39152C1.10216 3.24338 1.30308 3.16016 1.51259 3.16016H3.88238C4.05858 3.1602 4.22971 3.21917 4.36855 3.32766C4.50739 3.43616 4.60597 3.58796 4.64861 3.75892L5.28845 6.31988H23.6306C23.7506 6.31991 23.869 6.34728 23.9769 6.3999C24.0847 6.45253 24.1791 6.52903 24.253 6.62359C24.3268 6.71816 24.3782 6.8283 24.4031 6.94567C24.428 7.06304 24.4259 7.18455 24.3969 7.30097L22.0271 16.7801C21.9844 16.9511 21.8859 17.1029 21.747 17.2114C21.6082 17.3199 21.4371 17.3789 21.2608 17.3789H7.0421C6.8659 17.3789 6.69477 17.3199 6.55593 17.2114C6.41709 17.1029 6.31851 16.9511 6.27587 16.7801L3.26623 4.74002H1.51259C1.30308 4.74002 1.10216 4.65679 0.954022 4.50865C0.805881 4.36051 0.722656 4.15959 0.722656 3.95009ZM5.68342 7.89974L7.65825 15.799H20.6447L22.6195 7.89974H5.68342ZM8.62196 20.5386C8.20296 20.5386 7.80111 20.7051 7.50483 21.0014C7.20855 21.2976 7.0421 21.6995 7.0421 22.1185C7.0421 22.5375 7.20855 22.9393 7.50483 23.2356C7.80111 23.5319 8.20296 23.6983 8.62196 23.6983C9.04097 23.6983 9.44281 23.5319 9.73909 23.2356C10.0354 22.9393 10.2018 22.5375 10.2018 22.1185C10.2018 21.6995 10.0354 21.2976 9.73909 21.0014C9.44281 20.7051 9.04097 20.5386 8.62196 20.5386ZM5.46224 22.1185C5.46224 21.2805 5.79514 20.4768 6.3877 19.8842C6.98026 19.2917 7.78395 18.9588 8.62196 18.9588C9.45997 18.9588 10.2637 19.2917 10.8562 19.8842C11.4488 20.4768 11.7817 21.2805 11.7817 22.1185C11.7817 22.9565 11.4488 23.7602 10.8562 24.3527C10.2637 24.9453 9.45997 25.2782 8.62196 25.2782C7.78395 25.2782 6.98026 24.9453 6.3877 24.3527C5.79514 23.7602 5.46224 22.9565 5.46224 22.1185ZM19.681 20.5386C19.262 20.5386 18.8601 20.7051 18.5639 21.0014C18.2676 21.2976 18.1011 21.6995 18.1011 22.1185C18.1011 22.5375 18.2676 22.9393 18.5639 23.2356C18.8601 23.5319 19.262 23.6983 19.681 23.6983C20.1 23.6983 20.5018 23.5319 20.7981 23.2356C21.0944 22.9393 21.2608 22.5375 21.2608 22.1185C21.2608 21.6995 21.0944 21.2976 20.7981 21.0014C20.5018 20.7051 20.1 20.5386 19.681 20.5386ZM16.5213 22.1185C16.5213 21.2805 16.8542 20.4768 17.4467 19.8842C18.0393 19.2917 18.843 18.9588 19.681 18.9588C20.519 18.9588 21.3227 19.2917 21.9152 19.8842C22.5078 20.4768 22.8407 21.2805 22.8407 22.1185C22.8407 22.9565 22.5078 23.7602 21.9152 24.3527C21.3227 24.9453 20.519 25.2782 19.681 25.2782C18.843 25.2782 18.0393 24.9453 17.4467 24.3527C16.8542 23.7602 16.5213 22.9565 16.5213 22.1185Z" fill="#1E4493" stroke="#1E4493" stroke-width="0.5"/>
</svg>
