<svg width="58" height="58" viewBox="0 0 58 58" fill="none" xmlns="http://www.w3.org/2000/svg">
<path d="M17.6719 23.5625C17.6719 24.2422 17.5397 24.8841 17.2754 25.4883C17.0111 26.0924 16.6523 26.6211 16.1992 27.0742C15.7461 27.5273 15.2174 27.8861 14.6133 28.1504C14.0091 28.4147 13.3672 28.5469 12.6875 28.5469C12.0078 28.5469 11.3659 28.4147 10.7617 28.1504C10.1576 27.8861 9.62891 27.5273 9.17578 27.0742C8.72266 26.6211 8.36393 26.0924 8.09961 25.4883C7.83529 24.8841 7.70312 24.2422 7.70312 23.5625C7.70312 22.8828 7.83529 22.2409 8.09961 21.6367C8.36393 21.0326 8.72266 20.5039 9.17578 20.0508C9.62891 19.5977 10.1576 19.2389 10.7617 18.9746C11.3659 18.7103 12.0078 18.5781 12.6875 18.5781C13.3672 18.5781 14.0091 18.7103 14.6133 18.9746C15.2174 19.2389 15.7461 19.5977 16.1992 20.0508C16.6523 20.5039 17.0111 21.0326 17.2754 21.6367C17.5397 22.2409 17.6719 22.8828 17.6719 23.5625ZM12.6875 25.8281C13.3105 25.8281 13.8392 25.611 14.2734 25.1768C14.7077 24.7425 14.9342 24.2044 14.9531 23.5625C14.9531 22.9395 14.736 22.4108 14.3018 21.9766C13.8675 21.5423 13.3294 21.3158 12.6875 21.2969C12.0645 21.2969 11.5358 21.514 11.1016 21.9482C10.6673 22.3825 10.4408 22.9206 10.4219 23.5625C10.4219 24.1855 10.639 24.7142 11.0732 25.1484C11.5075 25.5827 12.0456 25.8092 12.6875 25.8281ZM27.1875 29.4531C27.8672 29.4531 28.5091 29.5853 29.1133 29.8496C29.7174 30.1139 30.2461 30.4727 30.6992 30.9258C31.1523 31.3789 31.5111 31.9076 31.7754 32.5117C32.0397 33.1159 32.1719 33.7578 32.1719 34.4375C32.1719 35.1172 32.0397 35.7591 31.7754 36.3633C31.5111 36.9674 31.1523 37.4961 30.6992 37.9492C30.2461 38.4023 29.7174 38.7611 29.1133 39.0254C28.5091 39.2897 27.8672 39.4219 27.1875 39.4219C26.5078 39.4219 25.8659 39.2897 25.2617 39.0254C24.6576 38.7611 24.1289 38.4023 23.6758 37.9492C23.2227 37.4961 22.8639 36.9674 22.5996 36.3633C22.3353 35.7591 22.2031 35.1172 22.2031 34.4375C22.2031 33.7578 22.3353 33.1159 22.5996 32.5117C22.8639 31.9076 23.2227 31.3789 23.6758 30.9258C24.1289 30.4727 24.6576 30.1139 25.2617 29.8496C25.8659 29.5853 26.5078 29.4531 27.1875 29.4531ZM27.1875 36.7031C27.8105 36.7031 28.3392 36.486 28.7734 36.0518C29.2077 35.6175 29.4342 35.0794 29.4531 34.4375C29.4531 33.8145 29.236 33.2858 28.8018 32.8516C28.3675 32.4173 27.8294 32.1908 27.1875 32.1719C26.5645 32.1719 26.0358 32.389 25.6016 32.8232C25.1673 33.2575 24.9408 33.7956 24.9219 34.4375C24.9219 35.0605 25.139 35.5892 25.5732 36.0234C26.0075 36.4577 26.5456 36.6842 27.1875 36.7031ZM23.4676 18.8811C23.6993 18.4177 24.173 18.125 24.6911 18.125C25.7079 18.125 26.3693 19.1951 25.9145 20.1046L16.4074 39.1189C16.1757 39.5823 15.702 39.875 15.1839 39.875C14.1671 39.875 13.5057 38.8049 13.9605 37.8954L23.4676 18.8811ZM39.0466 10.875C39.577 10.875 40.0857 11.0857 40.4608 11.4608L56.5858 27.5858C57.3668 28.3668 57.3668 29.6332 56.5858 30.4142L40.4608 46.5392C40.0857 46.9143 39.577 47.125 39.0466 47.125H2C0.895429 47.125 0 46.2296 0 45.125V12.875C0 11.7704 0.895431 10.875 2 10.875H39.0466ZM37.5456 43.5C38.076 43.5 38.5847 43.2893 38.9598 42.9142L51.4598 30.4142C52.2409 29.6332 52.2409 28.3668 51.4598 27.5858L38.9598 15.0858C38.5847 14.7107 38.076 14.5 37.5456 14.5H5.625C4.52043 14.5 3.625 15.3954 3.625 16.5V41.5C3.625 42.6046 4.52043 43.5 5.625 43.5H37.5456ZM43.5 27.1875C43.9909 27.1875 44.4157 27.3669 44.7744 27.7256C45.1331 28.0843 45.3125 28.5091 45.3125 29C45.3125 29.4909 45.1331 29.9157 44.7744 30.2744C44.4157 30.6331 43.9909 30.8125 43.5 30.8125C43.0091 30.8125 42.5843 30.6331 42.2256 30.2744C41.8669 29.9157 41.6875 29.4909 41.6875 29C41.6875 28.5091 41.8669 28.0843 42.2256 27.7256C42.5843 27.3669 43.0091 27.1875 43.5 27.1875Z" fill="#8FC73E"/>
</svg>
