<svg width="45" height="45" viewBox="0 0 45 45" fill="none" xmlns="http://www.w3.org/2000/svg">
<path d="M9.22576 19.3856H11.3918V19.9016H9.22576V19.3856ZM9.28576 21.5996H8.68576V17.3996H11.6498V17.9216H9.28576V21.5996ZM12.3518 21.5996V18.4196H12.9038V19.2836L12.8498 19.0676C12.9378 18.8476 13.0858 18.6796 13.2938 18.5636C13.5018 18.4476 13.7578 18.3896 14.0618 18.3896V18.9476C14.0378 18.9436 14.0138 18.9416 13.9898 18.9416C13.9698 18.9416 13.9498 18.9416 13.9298 18.9416C13.6218 18.9416 13.3778 19.0336 13.1978 19.2176C13.0178 19.4016 12.9278 19.6676 12.9278 20.0156V21.5996H12.3518ZM16.1584 21.6356C15.8184 21.6356 15.5184 21.5656 15.2584 21.4256C15.0024 21.2856 14.8024 21.0936 14.6584 20.8496C14.5184 20.6056 14.4484 20.3256 14.4484 20.0096C14.4484 19.6936 14.5164 19.4136 14.6524 19.1696C14.7924 18.9256 14.9824 18.7356 15.2224 18.5996C15.4664 18.4596 15.7404 18.3896 16.0444 18.3896C16.3524 18.3896 16.6244 18.4576 16.8604 18.5936C17.0964 18.7296 17.2804 18.9216 17.4124 19.1696C17.5484 19.4136 17.6164 19.6996 17.6164 20.0276C17.6164 20.0516 17.6144 20.0796 17.6104 20.1116C17.6104 20.1436 17.6084 20.1736 17.6044 20.2016H14.8984V19.7876H17.3044L17.0704 19.9316C17.0744 19.7276 17.0324 19.5456 16.9444 19.3856C16.8564 19.2256 16.7344 19.1016 16.5784 19.0136C16.4264 18.9216 16.2484 18.8756 16.0444 18.8756C15.8444 18.8756 15.6664 18.9216 15.5104 19.0136C15.3544 19.1016 15.2324 19.2276 15.1444 19.3916C15.0564 19.5516 15.0124 19.7356 15.0124 19.9436V20.0396C15.0124 20.2516 15.0604 20.4416 15.1564 20.6096C15.2564 20.7736 15.3944 20.9016 15.5704 20.9936C15.7464 21.0856 15.9484 21.1316 16.1764 21.1316C16.3644 21.1316 16.5344 21.0996 16.6864 21.0356C16.8424 20.9716 16.9784 20.8756 17.0944 20.7476L17.4124 21.1196C17.2684 21.2876 17.0884 21.4156 16.8724 21.5036C16.6604 21.5916 16.4224 21.6356 16.1584 21.6356ZM19.8322 21.6356C19.4922 21.6356 19.1922 21.5656 18.9322 21.4256C18.6762 21.2856 18.4762 21.0936 18.3322 20.8496C18.1922 20.6056 18.1222 20.3256 18.1222 20.0096C18.1222 19.6936 18.1902 19.4136 18.3262 19.1696C18.4662 18.9256 18.6562 18.7356 18.8962 18.5996C19.1402 18.4596 19.4142 18.3896 19.7182 18.3896C20.0262 18.3896 20.2982 18.4576 20.5342 18.5936C20.7702 18.7296 20.9542 18.9216 21.0862 19.1696C21.2222 19.4136 21.2902 19.6996 21.2902 20.0276C21.2902 20.0516 21.2882 20.0796 21.2842 20.1116C21.2842 20.1436 21.2822 20.1736 21.2782 20.2016H18.5722V19.7876H20.9782L20.7442 19.9316C20.7482 19.7276 20.7062 19.5456 20.6182 19.3856C20.5302 19.2256 20.4082 19.1016 20.2522 19.0136C20.1002 18.9216 19.9222 18.8756 19.7182 18.8756C19.5182 18.8756 19.3402 18.9216 19.1842 19.0136C19.0282 19.1016 18.9062 19.2276 18.8182 19.3916C18.7302 19.5516 18.6862 19.7356 18.6862 19.9436V20.0396C18.6862 20.2516 18.7342 20.4416 18.8302 20.6096C18.9302 20.7736 19.0682 20.9016 19.2442 20.9936C19.4202 21.0856 19.6222 21.1316 19.8502 21.1316C20.0382 21.1316 20.2082 21.0996 20.3602 21.0356C20.5162 20.9716 20.6522 20.8756 20.7682 20.7476L21.0862 21.1196C20.9422 21.2876 20.7622 21.4156 20.5462 21.5036C20.3342 21.5916 20.0962 21.6356 19.8322 21.6356Z" fill="white"/>
<path d="M13.633 35.2337C15.658 35.2337 17.2996 33.5921 17.2996 31.5671C17.2996 29.542 15.658 27.9004 13.633 27.9004C11.6079 27.9004 9.96631 29.542 9.96631 31.5671C9.96631 33.5921 11.6079 35.2337 13.633 35.2337Z" stroke="#FEFEFE" stroke-width="2" stroke-miterlimit="1.5" stroke-linecap="round" stroke-linejoin="round"/>
<path d="M31.9665 35.2337C33.9915 35.2337 35.6331 33.5921 35.6331 31.5671C35.6331 29.542 33.9915 27.9004 31.9665 27.9004C29.9414 27.9004 28.2998 29.542 28.2998 31.5671C28.2998 33.5921 29.9414 35.2337 31.9665 35.2337Z" stroke="#FEFEFE" stroke-width="2" stroke-miterlimit="1.5" stroke-linecap="round" stroke-linejoin="round"/>
<path d="M26.4663 31.5671V12.0004C26.4663 11.669 26.1977 11.4004 25.8663 11.4004H5.06631C4.73494 11.4004 4.46631 11.669 4.46631 12.0004V30.9671C4.46631 31.2984 4.73494 31.5671 5.06631 31.5671H9.32464" stroke="#FEFEFE" stroke-width="2" stroke-linecap="round"/>
<path d="M26.4681 31.5664H17.3931" stroke="#FEFEFE" stroke-width="2" stroke-linecap="round"/>
<path d="M26.4663 16.9004H37.0764C37.3135 16.9004 37.5284 17.04 37.6247 17.2567L41.0813 25.034C41.1154 25.1108 41.133 25.1938 41.133 25.2777V30.9671C41.133 31.2984 40.8643 31.5671 40.533 31.5671H36.5496" stroke="#FEFEFE" stroke-width="2" stroke-linecap="round"/>
<path d="M26.4663 31.5664H28.2996" stroke="#FEFEFE" stroke-width="2" stroke-linecap="round"/>
</svg>
