<svg width="38" height="38" viewBox="0 0 38 38" fill="none" xmlns="http://www.w3.org/2000/svg">
<path d="M5.9783 20.1274V15.9274H8.9423V16.4494H6.5783V20.1274H5.9783ZM6.5183 18.4294V17.9134H8.6843V18.4294H6.5183ZM9.6443 20.1274V16.9474H10.1963V17.8114L10.1423 17.5954C10.2303 17.3754 10.3783 17.2074 10.5863 17.0914C10.7943 16.9754 11.0503 16.9174 11.3543 16.9174V17.4754C11.3303 17.4714 11.3063 17.4694 11.2823 17.4694C11.2623 17.4694 11.2423 17.4694 11.2223 17.4694C10.9143 17.4694 10.6703 17.5614 10.4903 17.7454C10.3103 17.9294 10.2203 18.1954 10.2203 18.5434V20.1274H9.6443ZM13.4509 20.1634C13.1109 20.1634 12.8109 20.0934 12.5509 19.9534C12.2949 19.8134 12.0949 19.6214 11.9509 19.3774C11.8109 19.1334 11.7409 18.8534 11.7409 18.5374C11.7409 18.2214 11.8089 17.9414 11.9449 17.6974C12.0849 17.4534 12.2749 17.2634 12.5149 17.1274C12.7589 16.9874 13.0329 16.9174 13.3369 16.9174C13.6449 16.9174 13.9169 16.9854 14.1529 17.1214C14.3889 17.2574 14.5729 17.4494 14.7049 17.6974C14.8409 17.9414 14.9089 18.2274 14.9089 18.5554C14.9089 18.5794 14.9069 18.6074 14.9029 18.6394C14.9029 18.6714 14.9009 18.7014 14.8969 18.7294H12.1909V18.3154H14.5969L14.3629 18.4594C14.3669 18.2554 14.3249 18.0734 14.2369 17.9134C14.1489 17.7534 14.0269 17.6294 13.8709 17.5414C13.7189 17.4494 13.5409 17.4034 13.3369 17.4034C13.1369 17.4034 12.9589 17.4494 12.8029 17.5414C12.6469 17.6294 12.5249 17.7554 12.4369 17.9194C12.3489 18.0794 12.3049 18.2634 12.3049 18.4714V18.5674C12.3049 18.7794 12.3529 18.9694 12.4489 19.1374C12.5489 19.3014 12.6869 19.4294 12.8629 19.5214C13.0389 19.6134 13.2409 19.6594 13.4689 19.6594C13.6569 19.6594 13.8269 19.6274 13.9789 19.5634C14.1349 19.4994 14.2709 19.4034 14.3869 19.2754L14.7049 19.6474C14.5609 19.8154 14.3809 19.9434 14.1649 20.0314C13.9529 20.1194 13.7149 20.1634 13.4509 20.1634ZM17.1247 20.1634C16.7847 20.1634 16.4847 20.0934 16.2247 19.9534C15.9687 19.8134 15.7687 19.6214 15.6247 19.3774C15.4847 19.1334 15.4147 18.8534 15.4147 18.5374C15.4147 18.2214 15.4827 17.9414 15.6187 17.6974C15.7587 17.4534 15.9487 17.2634 16.1887 17.1274C16.4327 16.9874 16.7067 16.9174 17.0107 16.9174C17.3187 16.9174 17.5907 16.9854 17.8267 17.1214C18.0627 17.2574 18.2467 17.4494 18.3787 17.6974C18.5147 17.9414 18.5827 18.2274 18.5827 18.5554C18.5827 18.5794 18.5807 18.6074 18.5767 18.6394C18.5767 18.6714 18.5747 18.7014 18.5707 18.7294H15.8647V18.3154H18.2707L18.0367 18.4594C18.0407 18.2554 17.9987 18.0734 17.9107 17.9134C17.8227 17.7534 17.7007 17.6294 17.5447 17.5414C17.3927 17.4494 17.2147 17.4034 17.0107 17.4034C16.8107 17.4034 16.6327 17.4494 16.4767 17.5414C16.3207 17.6294 16.1987 17.7554 16.1107 17.9194C16.0227 18.0794 15.9787 18.2634 15.9787 18.4714V18.5674C15.9787 18.7794 16.0267 18.9694 16.1227 19.1374C16.2227 19.3014 16.3607 19.4294 16.5367 19.5214C16.7127 19.6134 16.9147 19.6594 17.1427 19.6594C17.3307 19.6594 17.5007 19.6274 17.6527 19.5634C17.8087 19.4994 17.9447 19.4034 18.0607 19.2754L18.3787 19.6474C18.2347 19.8154 18.0547 19.9434 17.8387 20.0314C17.6267 20.1194 17.3887 20.1634 17.1247 20.1634Z" fill="#8FC73E"/>
<path d="M11.0837 30.0833C12.8326 30.0833 14.2503 28.6656 14.2503 26.9167C14.2503 25.1678 12.8326 23.75 11.0837 23.75C9.33476 23.75 7.91699 25.1678 7.91699 26.9167C7.91699 28.6656 9.33476 30.0833 11.0837 30.0833Z" stroke="#8FC73E" stroke-width="2" stroke-miterlimit="1.5" stroke-linecap="round" stroke-linejoin="round"/>
<path d="M26.9167 30.0833C28.6656 30.0833 30.0833 28.6656 30.0833 26.9167C30.0833 25.1678 28.6656 23.75 26.9167 23.75C25.1678 23.75 23.75 25.1678 23.75 26.9167C23.75 28.6656 25.1678 30.0833 26.9167 30.0833Z" stroke="#8FC73E" stroke-width="2" stroke-miterlimit="1.5" stroke-linecap="round" stroke-linejoin="round"/>
<path d="M22.167 26.9167V10.1C22.167 9.76863 21.8984 9.5 21.567 9.5H3.76699C3.43562 9.5 3.16699 9.76863 3.16699 10.1V26.3167C3.16699 26.648 3.43562 26.9167 3.76699 26.9167H7.36283" stroke="#8FC73E" stroke-width="2" stroke-linecap="round"/>
<path d="M22.1676 26.9165H14.3301" stroke="#8FC73E" stroke-width="2" stroke-linecap="round"/>
<path d="M22.167 14.25H31.2771C31.5142 14.25 31.7291 14.3896 31.8254 14.6063L34.7819 21.2586C34.816 21.3354 34.8337 21.4184 34.8337 21.5023V26.3167C34.8337 26.648 34.565 26.9167 34.2337 26.9167H30.8753" stroke="#8FC73E" stroke-width="2" stroke-linecap="round"/>
<path d="M22.167 26.9165H23.7503" stroke="#8FC73E" stroke-width="2" stroke-linecap="round"/>
</svg>
