<svg width="58" height="58" viewBox="0 0 58 58" fill="none" xmlns="http://www.w3.org/2000/svg">
<path d="M4.14258 18.2979C4.14258 16.375 4.90642 14.531 6.26605 13.1713C7.62569 11.8117 9.46976 11.0479 11.3926 11.0479H47.6426C49.5654 11.0479 51.4095 11.8117 52.7691 13.1713C54.1287 14.531 54.8926 16.375 54.8926 18.2979V40.0479C54.8926 41.9707 54.1287 43.8147 52.7691 45.1744C51.4095 46.534 49.5654 47.2979 47.6426 47.2979H11.3926C9.46976 47.2979 7.62569 46.534 6.26605 45.1744C4.90642 43.8147 4.14258 41.9707 4.14258 40.0479V18.2979ZM47.6426 43.6729C48.604 43.6729 49.526 43.2909 50.2058 42.6111C50.8857 41.9313 51.2676 41.0093 51.2676 40.0479V29.1729H24.8305L28.9883 33.3271C29.3287 33.6674 29.5199 34.129 29.5199 34.6104C29.5199 35.0917 29.3287 35.5533 28.9883 35.8936C28.648 36.2339 28.1864 36.4251 27.7051 36.4251C27.2238 36.4251 26.7622 36.2339 26.4218 35.8936L22.2676 31.7357V43.6729H47.6426ZM29.2095 25.5479H51.2676V18.2979C51.2676 17.3364 50.8857 16.4144 50.2058 15.7346C49.526 15.0548 48.604 14.6729 47.6426 14.6729H22.2676V18.606C22.8379 18.403 23.4421 18.3003 24.0801 18.2979C24.9502 18.2974 25.8078 18.5058 26.5807 18.9055C27.3536 19.3052 28.0192 19.8845 28.5218 20.5948C29.0244 21.3052 29.3491 22.1257 29.4688 22.9876C29.5884 23.8495 29.4995 24.7275 29.2095 25.5479ZM24.0801 25.5479C24.4386 25.5479 24.789 25.4416 25.087 25.2424C25.3851 25.0432 25.6174 24.7602 25.7546 24.429C25.8918 24.0978 25.9277 23.7333 25.8578 23.3818C25.7878 23.0302 25.6152 22.7072 25.3617 22.4537C25.1082 22.2002 24.7853 22.0276 24.4337 21.9577C24.0821 21.8877 23.7177 21.9236 23.3865 22.0608C23.0553 22.198 22.7722 22.4303 22.573 22.7284C22.3739 23.0264 22.2676 23.3769 22.2676 23.7354V25.5479H24.0801ZM18.6426 18.606V14.6729H11.3926C10.4312 14.6729 9.50914 15.0548 8.82932 15.7346C8.1495 16.4144 7.76758 17.3364 7.76758 18.2979V25.5479H11.7007C11.3574 24.5796 11.2955 23.5339 11.522 22.5318C11.7486 21.5298 12.2543 20.6125 12.9808 19.886C13.7072 19.1596 14.6245 18.6538 15.6266 18.4273C16.6286 18.2008 17.6743 18.2627 18.6426 18.606ZM16.8301 25.5479H18.6426V23.7354C18.6426 23.3769 18.5363 23.0264 18.3371 22.7284C18.138 22.4303 17.8549 22.198 17.5237 22.0608C17.1925 21.9236 16.8281 21.8877 16.4765 21.9577C16.1249 22.0276 15.8019 22.2002 15.5484 22.4537C15.295 22.7072 15.1223 23.0302 15.0524 23.3818C14.9825 23.7333 15.0184 24.0978 15.1555 24.429C15.2927 24.7602 15.525 25.0432 15.8231 25.2424C16.1212 25.4416 16.4716 25.5479 16.8301 25.5479ZM16.0797 29.1729H7.76758V40.0479C7.76758 41.0093 8.1495 41.9313 8.82932 42.6111C9.50914 43.2909 10.4312 43.6729 11.3926 43.6729H18.6426V31.7357L14.4883 35.8936C14.3198 36.0621 14.1197 36.1958 13.8996 36.287C13.6794 36.3782 13.4434 36.4251 13.2051 36.4251C12.9668 36.4251 12.7308 36.3782 12.5106 36.287C12.2904 36.1958 12.0903 36.0621 11.9218 35.8936C11.7533 35.7251 11.6196 35.525 11.5284 35.3048C11.4372 35.0847 11.3903 34.8487 11.3903 34.6104C11.3903 34.372 11.4372 34.136 11.5284 33.9159C11.6196 33.6957 11.7533 33.4956 11.9218 33.3271L16.0797 29.1729Z" fill="#8FC73E"/>
</svg>
