<svg width="45" height="45" viewBox="0 0 45 45" fill="none" xmlns="http://www.w3.org/2000/svg">
<path d="M8 35.4V10.6C8 9.16406 9.16406 8 10.6 8H16.65C18.0859 8 19.25 9.16406 19.25 10.6V35.4C19.25 36.8359 18.0859 38 16.65 38H10.6C9.16406 38 8 36.8359 8 35.4Z" stroke="#045A9F" stroke-width="3.5"/>
<path d="M25 35.4V10.6C25 9.16406 26.1641 8 27.6 8H33.65C35.0859 8 36.25 9.16406 36.25 10.6V35.4C36.25 36.8359 35.0859 38 33.65 38H27.6C26.1641 38 25 36.8359 25 35.4Z" stroke="#045A9F" stroke-width="3.5"/>
</svg>
