<svg width="31" height="30" viewBox="0 0 31 30" fill="none" xmlns="http://www.w3.org/2000/svg">
<path d="M5.96094 23.333V7.33301C5.96094 6.22844 6.85637 5.33301 7.96094 5.33301H11.4609C12.5655 5.33301 13.4609 6.22844 13.4609 7.33301V23.333C13.4609 24.4376 12.5655 25.333 11.4609 25.333H7.96094C6.85637 25.333 5.96094 24.4376 5.96094 23.333Z" fill="#045A9F" stroke="#045A9F" stroke-width="1.5"/>
<path d="M17.293 23.333V7.33301C17.293 6.22844 18.1884 5.33301 19.293 5.33301H22.793C23.8975 5.33301 24.793 6.22844 24.793 7.33301V23.333C24.793 24.4376 23.8975 25.333 22.793 25.333H19.293C18.1884 25.333 17.293 24.4376 17.293 23.333Z" fill="#045A9F" stroke="#045A9F" stroke-width="1.5"/>
</svg>
