<svg width="40" height="45" viewBox="0 0 40 45" fill="none" xmlns="http://www.w3.org/2000/svg">
<rect y="5" width="40" height="40" rx="1" fill="#1E4494"/>
<path d="M13.3333 36.6667C15.1743 36.6667 16.6667 35.1743 16.6667 33.3333C16.6667 31.4924 15.1743 30 13.3333 30C11.4924 30 10 31.4924 10 33.3333C10 35.1743 11.4924 36.6667 13.3333 36.6667Z" stroke="#FEFEFE" stroke-width="2" stroke-miterlimit="1.5" stroke-linecap="round" stroke-linejoin="round"/>
<path d="M29.9998 36.6667C31.8408 36.6667 33.3332 35.1743 33.3332 33.3333C33.3332 31.4924 31.8408 30 29.9998 30C28.1589 30 26.6665 31.4924 26.6665 33.3333C26.6665 35.1743 28.1589 36.6667 29.9998 36.6667Z" stroke="#FEFEFE" stroke-width="2" stroke-miterlimit="1.5" stroke-linecap="round" stroke-linejoin="round"/>
<path d="M16.7498 33.3333H24.9998V15.6C24.9998 15.2686 24.7312 15 24.3998 15H1.6665" stroke="#FEFEFE" stroke-width="2" stroke-linecap="round"/>
<path d="M9.41667 33.3327H5.6C5.26863 33.3327 5 33.0641 5 32.7327V24.166" stroke="#FEFEFE" stroke-width="2" stroke-linecap="round"/>
<path d="M3.3335 20L10.0002 20" stroke="#FEFEFE" stroke-width="2" stroke-linecap="round" stroke-linejoin="round"/>
<path d="M25 20H34.6101C34.8472 20 35.0621 20.1396 35.1584 20.3563L38.2816 27.3836C38.3157 27.4604 38.3333 27.5434 38.3333 27.6273V32.7333C38.3333 33.0647 38.0647 33.3333 37.7333 33.3333H34.1667" stroke="#FEFEFE" stroke-width="2" stroke-linecap="round"/>
<path d="M25 33.334H26.6667" stroke="#FEFEFE" stroke-width="2" stroke-linecap="round"/>
<g clip-path="url(#clip0_2253_6000)">
<path d="M24.4004 4L24.4004 8L28.4004 8" stroke="#FEFEFE" stroke-width="1.5" stroke-linecap="round" stroke-linejoin="round"/>
<path d="M24.4006 14.6673C28.0825 14.6673 31.0672 11.6825 31.0672 8.00065C31.0672 4.31875 28.0825 1.33398 24.4006 1.33398C20.7187 1.33398 17.7339 4.31875 17.7339 8.00065C17.7339 11.6825 20.7187 14.6673 24.4006 14.6673Z" stroke="#FEFEFE" stroke-width="1.5" stroke-linecap="round" stroke-linejoin="round"/>
</g>
<defs>
<clipPath id="clip0_2253_6000">
<rect width="16" height="16" fill="white" transform="translate(16.4004)"/>
</clipPath>
</defs>
</svg>
