<svg width="29" height="21" viewBox="0 0 29 21" fill="none" xmlns="http://www.w3.org/2000/svg">
<path d="M19.6786 14.7C19.4039 14.7 19.1404 14.8106 18.9462 15.0075C18.752 15.2045 18.6429 15.4715 18.6429 15.75C18.6429 16.0285 18.752 16.2956 18.9462 16.4925C19.1404 16.6894 19.4039 16.8 19.6786 16.8H23.8214C24.0961 16.8 24.3596 16.6894 24.5538 16.4925C24.748 16.2956 24.8571 16.0285 24.8571 15.75C24.8571 15.4715 24.748 15.2045 24.5538 15.0075C24.3596 14.8106 24.0961 14.7 23.8214 14.7H19.6786ZM0 5.25C0 3.85761 0.545598 2.52226 1.51677 1.53769C2.48794 0.553123 3.80513 0 5.17857 0H23.8214C25.1949 0 26.5121 0.553123 27.4832 1.53769C28.4544 2.52226 29 3.85761 29 5.25V15.75C29 17.1424 28.4544 18.4777 27.4832 19.4623C26.5121 20.4469 25.1949 21 23.8214 21H5.17857C3.80513 21 2.48794 20.4469 1.51677 19.4623C0.545598 18.4777 0 17.1424 0 15.75V5.25ZM26.9286 6.3V5.25C26.9286 4.41457 26.6012 3.61335 26.0185 3.02261C25.4358 2.43187 24.6455 2.1 23.8214 2.1H5.17857C4.35451 2.1 3.56419 2.43187 2.98149 3.02261C2.39879 3.61335 2.07143 4.41457 2.07143 5.25V6.3H26.9286ZM2.07143 8.4V15.75C2.07143 16.5854 2.39879 17.3866 2.98149 17.9774C3.56419 18.5681 4.35451 18.9 5.17857 18.9H23.8214C24.6455 18.9 25.4358 18.5681 26.0185 17.9774C26.6012 17.3866 26.9286 16.5854 26.9286 15.75V8.4H2.07143Z" fill="#8FC73E"/>
</svg>
