<svg width="30" height="30" viewBox="0 0 30 30" fill="none" xmlns="http://www.w3.org/2000/svg">
<path d="M18.7505 9.37509C18.2532 9.37509 17.7763 9.17755 17.4246 8.82592C17.073 8.47429 16.8755 7.99737 16.8755 7.50009C16.8755 7.00281 17.073 6.5259 17.4246 6.17427C17.7763 5.82264 18.2532 5.62509 18.7505 5.62509C19.2477 5.62509 19.7247 5.82264 20.0763 6.17427C20.4279 6.5259 20.6255 7.00281 20.6255 7.50009C20.6255 7.99737 20.4279 8.47429 20.0763 8.82592C19.7247 9.17755 19.2477 9.37509 18.7505 9.37509ZM2.97609 17.1301C2.62744 16.7833 2.35076 16.3711 2.16196 15.9171C1.97317 15.4631 1.87598 14.9762 1.87598 14.4845C1.87598 13.9927 1.97317 13.5059 2.16196 13.0518C2.35076 12.5978 2.62744 12.1856 2.97609 11.8388L11.8636 2.99634C12.5655 2.29624 13.516 1.90254 14.5073 1.90134L20.5992 1.87509C21.0955 1.87161 21.5875 1.96666 22.0467 2.15473C22.5059 2.34281 22.9233 2.62016 23.2745 2.97072C23.6258 3.32127 23.904 3.73806 24.0929 4.19692C24.2819 4.65578 24.378 5.14759 24.3755 5.64384L24.3398 10.4813C23.74 10.1783 23.112 9.93467 22.4648 9.75384L22.4967 5.62884C22.4977 5.38087 22.4495 5.13517 22.3549 4.90596C22.2603 4.67675 22.1212 4.46857 21.9456 4.29349C21.77 4.11842 21.5614 3.97991 21.3319 3.88599C21.1024 3.79207 20.8566 3.7446 20.6086 3.74634L14.5148 3.77072C14.0192 3.77132 13.5439 3.96817 13.193 4.31822L4.30546 13.1626C4.13119 13.3358 3.9929 13.5418 3.89852 13.7686C3.80415 13.9955 3.75557 14.2388 3.75557 14.4845C3.75557 14.7302 3.80415 14.9735 3.89852 15.2003C3.9929 15.4272 4.13119 15.6331 4.30546 15.8063L9.44859 20.9251C9.58171 22.0426 9.89484 23.1057 10.3561 24.0826C9.90789 23.8953 9.50034 23.6228 9.15609 23.2801L2.97609 17.1301ZM28.1255 19.6876C28.1255 20.7956 27.9072 21.8928 27.4832 22.9165C27.0592 23.9402 26.4377 24.8703 25.6542 25.6538C24.8707 26.4373 23.9405 27.0588 22.9169 27.4828C21.8932 27.9068 20.796 28.1251 19.688 28.1251C18.5799 28.1251 17.4828 27.9068 16.4591 27.4828C15.4354 27.0588 14.5052 26.4373 13.7217 25.6538C12.9383 24.8703 12.3168 23.9402 11.8927 22.9165C11.4687 21.8928 11.2505 20.7956 11.2505 19.6876C11.2505 17.4498 12.1394 15.3037 13.7217 13.7214C15.3041 12.139 17.4502 11.2501 19.688 11.2501C21.9257 11.2501 24.0718 12.139 25.6542 13.7214C27.2365 15.3037 28.1255 17.4498 28.1255 19.6876ZM14.063 16.8751C14.063 17.3724 14.2605 17.8493 14.6121 18.2009C14.9638 18.5525 15.4407 18.7501 15.938 18.7501C16.4352 18.7501 16.9122 18.5525 17.2638 18.2009C17.6154 17.8493 17.813 17.3724 17.813 16.8751C17.813 16.3778 17.6154 15.9009 17.2638 15.5493C16.9122 15.1976 16.4352 15.0001 15.938 15.0001C15.4407 15.0001 14.9638 15.1976 14.6121 15.5493C14.2605 15.9009 14.063 16.3778 14.063 16.8751ZM24.0905 15.2757C23.9147 15.1 23.6762 15.0012 23.4276 15.0012C23.1791 15.0012 22.9406 15.1 22.7648 15.2757L15.2723 22.7682C15.1016 22.945 15.0071 23.1818 15.0092 23.4277C15.0113 23.6735 15.1099 23.9086 15.2838 24.0824C15.4576 24.2562 15.6927 24.3548 15.9385 24.357C16.1843 24.3591 16.4211 24.2646 16.598 24.0938L24.0905 16.6013C24.2662 16.4255 24.3649 16.1871 24.3649 15.9385C24.3649 15.6899 24.2662 15.4515 24.0905 15.2757ZM23.438 20.6251C22.9407 20.6251 22.4638 20.8226 22.1121 21.1743C21.7605 21.5259 21.563 22.0028 21.563 22.5001C21.563 22.9974 21.7605 23.4743 22.1121 23.8259C22.4638 24.1775 22.9407 24.3751 23.438 24.3751C23.9352 24.3751 24.4122 24.1775 24.7638 23.8259C25.1154 23.4743 25.313 22.9974 25.313 22.5001C25.313 22.0028 25.1154 21.5259 24.7638 21.1743C24.4122 20.8226 23.9352 20.6251 23.438 20.6251Z" fill="#8FC73E"/>
</svg>
