<svg width="31" height="33" viewBox="0 0 31 33" fill="none" xmlns="http://www.w3.org/2000/svg">
<path d="M31 23.7305C30.9999 25.8939 30.2755 27.9923 28.947 29.6781C27.6184 31.3639 25.7654 32.536 23.6949 33L22.7059 29.9724C23.6116 29.8205 24.4729 29.4653 25.2278 28.9324C25.9826 28.3995 26.6121 27.7023 27.0707 26.891H23.25C22.4278 26.891 21.6393 26.5577 21.058 25.9644C20.4766 25.3711 20.15 24.5664 20.15 23.7274V17.4001C20.15 16.561 20.4766 15.7563 21.058 15.163C21.6393 14.5697 22.4278 14.2364 23.25 14.2364H27.8039C27.4257 11.1786 25.967 8.3667 23.7017 6.32836C21.4364 4.29003 18.5201 3.16535 15.5 3.16535C12.4799 3.16535 9.5636 4.29003 7.29829 6.32836C5.03297 8.3667 3.57435 11.1786 3.1961 14.2364H7.75C8.57217 14.2364 9.36067 14.5697 9.94203 15.163C10.5234 15.7563 10.85 16.561 10.85 17.4001V23.7274C10.85 24.5664 10.5234 25.3711 9.94203 25.9644C9.36067 26.5577 8.57217 26.891 7.75 26.891H3.1C2.27783 26.891 1.48933 26.5577 0.907969 25.9644C0.326606 25.3711 0 24.5664 0 23.7274V15.8182C0 7.08182 6.93935 0 15.5 0C24.0606 0 31 7.08182 31 15.8182V23.7305ZM27.9 23.7274V17.4001H23.25V23.7274H27.9ZM3.1 17.4001V23.7274H7.75V17.4001H3.1Z" fill="#FEFEFE"/>
</svg>
